<svg width="128" height="127" viewBox="0 0 128 127" fill="none" xmlns="http://www.w3.org/2000/svg">
<g clip-path="url(#clip0_41_181)">
<path d="M107.844 0H20.5312C9.57186 0 0.6875 8.88436 0.6875 19.8438V107.156C0.6875 118.116 9.57186 127 20.5312 127H107.844C118.803 127 127.688 118.116 127.688 107.156V19.8438C127.688 8.88436 118.803 0 107.844 0Z" fill="#F6F6F6"/>
<path d="M32.834 62.3423C49.8797 54.916 61.2463 50.0197 66.9335 47.6543C83.1716 40.9003 86.5454 39.7272 88.7449 39.6879C89.2283 39.6797 90.3098 39.7998 91.0107 40.3681C91.602 40.8479 91.7647 41.4964 91.8429 41.9517C91.9207 42.4065 92.0176 43.4435 91.9406 44.2535C91.0607 53.4991 87.2531 75.9361 85.3159 86.2913C84.4964 90.6732 82.8823 92.1425 81.3198 92.2861C77.9245 92.5985 75.346 90.0422 72.0571 87.8864C66.9108 84.5129 64.0037 82.4127 59.0083 79.121C53.2353 75.3165 56.9779 73.2258 60.268 69.8087C61.1288 68.9145 76.0898 55.3065 76.3791 54.0718C76.4156 53.9174 76.4489 53.342 76.1072 53.038C75.7651 52.7343 75.2607 52.8383 74.8964 52.9209C74.3804 53.038 66.1592 58.472 50.233 69.2225C47.8993 70.8251 45.7856 71.6058 43.8921 71.5649C41.8041 71.5196 37.7882 70.3842 34.8028 69.4138C31.141 68.2236 28.2307 67.5941 28.4841 65.5729C28.6161 64.52 30.0661 63.4428 32.834 62.3423Z" fill="#646464"/>
</g>
<defs>
<clipPath id="clip0_41_181">
<rect width="127" height="127" fill="white" transform="translate(0.6875)"/>
</clipPath>
</defs>
</svg>
