<svg width="127" height="127" viewBox="0 0 127 127" fill="none" xmlns="http://www.w3.org/2000/svg">
<g clip-path="url(#clip0_410_44)">
<path d="M0 20.8438C0 9.88436 8.88436 1 19.8438 1H107.156C118.116 1 127 9.88436 127 20.8438V108.156C127 119.116 118.116 128 107.156 128H19.8438C8.88436 128 0 119.116 0 108.156V20.8438Z" fill="#F6F6F6"/>
<path d="M31.75 62.23C31.75 47.858 31.75 40.6825 36.195 36.195C40.7035 31.75 47.879 31.75 62.23 31.75H64.77C79.142 31.75 86.3175 31.75 90.805 36.195C95.25 40.7035 95.25 47.879 95.25 62.23V64.77C95.25 79.142 95.25 86.3175 90.805 90.805C86.2965 95.25 79.121 95.25 64.77 95.25H62.23C47.858 95.25 40.6825 95.25 36.195 90.805C31.75 86.2965 31.75 79.121 31.75 64.77V62.23Z" fill="#F6F6F6"/>
<path d="M65.532 77.4912C51.054 77.4912 42.799 67.5852 42.4604 51.0752H49.7415C49.9745 63.1827 55.3085 68.3048 59.5419 69.3632V51.0752H66.3785V61.5103C70.5485 61.0658 74.951 56.3033 76.4329 51.0542H83.2485C82.6929 53.7716 81.5828 56.3449 79.9874 58.6139C78.3923 60.8828 76.3464 62.7985 73.9775 64.2408C76.6211 65.5568 78.9555 67.4181 80.8275 69.7018C82.6992 71.9858 84.0652 74.6409 84.836 77.4912H77.3219C75.713 72.4747 71.6915 68.5802 66.3785 68.0508V77.4912H65.553H65.532Z" fill="#646464"/>
</g>
<defs>
<clipPath id="clip0_410_44">
<rect width="127" height="127" fill="white"/>
</clipPath>
</defs>
</svg>
