<svg width="128" height="127" viewBox="0 0 128 127" fill="none" xmlns="http://www.w3.org/2000/svg">
<g clip-path="url(#clip0_41_174)">
<path d="M107.5 0H20.1875C9.22811 0 0.34375 8.88436 0.34375 19.8438V107.156C0.34375 118.116 9.22811 127 20.1875 127H107.5C118.459 127 127.344 118.116 127.344 107.156V19.8438C127.344 8.88436 118.459 0 107.5 0Z" fill="#F6F6F6"/>
<path fill-rule="evenodd" clip-rule="evenodd" d="M86.0688 40.8781C80.1156 34.925 72.1781 31.75 63.8438 31.75C46.3812 31.75 32.0938 46.0375 32.0938 63.5C32.0938 69.0563 33.6813 74.6125 36.4594 79.375L32.0938 95.25L48.7625 90.8844C53.525 93.2656 58.6844 94.8531 63.8438 94.8531C81.3063 94.8531 95.5938 80.5656 95.5938 63.1031C95.5938 54.7687 92.0219 46.8313 86.0688 40.8781ZM63.8438 89.6938C59.0812 89.6938 54.3188 88.5031 50.35 86.1219L49.5562 85.725L39.6343 88.5031L42.4125 78.9781L41.6187 77.7875C38.8406 73.4219 37.65 68.6594 37.65 63.8969C37.65 49.6094 49.5562 37.7031 63.8438 37.7031C70.9875 37.7031 77.3375 40.4812 82.4969 45.2437C87.6563 50.4031 90.0375 56.7531 90.0375 63.8969C90.0375 77.7875 78.5281 89.6938 63.8438 89.6938ZM78.1313 69.85C77.3375 69.4531 73.3688 67.4688 72.575 67.4688C71.7813 67.0719 71.3844 67.0719 70.9875 67.8656C70.5906 68.6594 69.0031 70.2469 68.6063 71.0406C68.2094 71.4375 67.8125 71.4375 67.0187 71.4375C66.225 71.0406 63.8438 70.2469 60.6687 67.4688C58.2875 65.4844 56.7 62.7063 56.3031 61.9125C55.9063 61.1188 56.3031 60.7219 56.7 60.325C57.0969 59.9281 57.4937 59.5312 57.8906 59.1344C58.2875 58.7375 58.2875 58.3406 58.6844 57.9438C59.0812 57.5469 58.6844 57.15 58.6844 56.7531C58.6844 56.3563 57.0969 52.3875 56.3031 50.8C55.9063 49.6094 55.1125 49.6094 54.7156 49.6094C54.3187 49.6094 53.9219 49.6094 53.1281 49.6094C52.7313 49.6094 51.9375 49.6094 51.1438 50.4031C50.35 51.1969 48.3656 53.1812 48.3656 57.15C48.3656 61.1187 51.1437 64.6906 51.5406 65.4844C51.9375 65.8812 57.0969 74.2156 65.0344 77.3906C71.7812 80.1688 72.9719 79.375 74.5594 79.375C76.1469 79.375 79.3219 77.3906 79.7188 75.8031C80.5125 73.8188 80.5125 72.2313 80.1156 72.2313C79.7188 70.2469 78.925 70.2469 78.1313 69.85Z" fill="#646464"/>
</g>
<defs>
<clipPath id="clip0_41_174">
<rect width="127" height="127" fill="white" transform="translate(0.34375)"/>
</clipPath>
</defs>
</svg>
